#!OML:ASF H:\ManfredETheater\Project 1\Capture day 1\Session 1\subject.ASF
:FULLY-SPECIFIED
:DEGREES
331
root 0.555125 15.8879 -39.9042 -151.956 0.434654 -187.491
lowerback 18.0431 -2.42177 -2.84652
upperback -0.455418 -3.73435 1.98256
thorax -10.3269 -1.60767 4.78841
lowerneck -20.1178 -0.15515 -2.8792
upperneck -3.72189 1.59093 -2.64549
head 2.25121 1.172 -0.216243
rclavicle 1.23246e-014 7.15625e-015
rhumerus -68.9084 -3.20037 -82.3441
rradius 80.3197
rwrist -16.3317
rhand -28.9297 3.0648
rfingers 7.12502
rthumb -2.28386 -26.9027
lclavicle 1.23246e-014 7.15625e-015
lhumerus -46.0304 -15.3125 94.2468
lradius 115.22
lwrist 4.67504
lhand -22.3703 -3.2803
lfingers 7.12502
lthumb 4.05118 26.6609
rfemur -62.1572 -10.1284 24.4405
rtibia 78.6594
rfoot -23.0226 -17.1796
rtoes -45.5675
lfemur -9.62472 -11.6826 -28.6338
ltibia 49.2641
lfoot 13.9646 -13.2912
ltoes 15.1891
332
root 0.567911 15.9101 -40.2513 -151.877 0.568182 -187.037
lowerback 18.2003 -2.27116 -2.43537
upperback -0.341796 -3.45464 2.04249
thorax -10.3363 -1.50085 4.55493
lowerneck -20.0232 -0.225897 -2.86646
upperneck -4.12123 1.52473 -2.67747
head 2.09535 1.1674 -0.236322
rclavicle 1.19271e-015 4.77083e-015
rhumerus -65.9684 -3.76484 -82.7688
rradius 79.4384
rwrist -16.4566
rhand -28.9572 2.18173
rfingers 7.12502
rthumb -2.31038 -27.7855
lclavicle 1.19271e-015 4.77083e-015
lhumerus -46.4916 -14.6036 94.6945
lradius 110.622
lwrist 4.79635
lhand -21.8573 -3.29078
lfingers 7.12502
lthumb 4.54659 26.6404
rfemur -59.9555 -9.51099 24.4883
rtibia 77.579
rfoot -23.7306 -18.3146
rtoes -46.1306
lfemur -11.9109 -11.0635 -28.0296
ltibia 53.3985
lfoot 13.5121 -10.9661
ltoes 16.5366
333
root 0.581756 15.9342 -40.5987 -151.853 0.684774 -186.498
lowerback 18.407 -2.11344 -1.97935
upperback -0.211163 -3.1573 2.11977
thorax -10.3539 -1.38866 4.31147
lowerneck -19.9371 -0.298966 -2.83644
upperneck -4.50591 1.4518 -2.71003
head 1.94691 1.15867 -0.259868
rclavicle 1.90833e-014 -4.45278e-014
rhumerus -62.8044 -4.11421 -83.3521
rradius 78.5674
rwrist -16.316
rhand -29.0881 1.5336
rfingers 7.12502
rthumb -2.43679 -28.4322
lclavicle 1.90833e-014 -4.45278e-014
lhumerus -46.7483 -13.6409 94.9942
lradius 105.647
lwrist 4.66214
lhand -21.8426 -3.46976
lfingers 7.12502
lthumb 4.56076 26.4611
rfemur -57.7258 -8.86343 24.6202
rtibia 76.4822
rfoot -24.2945 -19.1613
rtoes -46.5093
lfemur -14.3263 -10.2295 -27.3088
ltibia 57.7146
lfoot 12.6632 -8.024
ltoes 17.0075
334
root 0.5973 15.9594 -40.9465 -151.866 0.817192 -185.94
lowerback 18.65 -1.94223 -1.55625
upperback -0.0819991 -2.84948 2.20124
thorax -10.3887 -1.26972 4.0891
lowerneck -19.8474 -0.370516 -2.79234
upperneck -4.85641 1.37559 -2.76492
head 1.81059 1.14511 -0.293071
rclavicle -5.04913e-014 -1.27222e-014
rhumerus -59.5051 -4.17606 -84.0833
rradius 77.8301
rwrist -16.0283
rhand -29.281 1.1446
rfingers 7.12502
rthumb -2.62307 -28.819
lclavicle -5.04913e-014 -1.27222e-014
lhumerus -46.8451 -12.4835 95.1275
lradius 100.402
lwrist 4.31824
lhand -22.338 -3.80443
lfingers 7.12502
lthumb 4.08238 26.1362
rfemur -55.4941 -8.21221 24.7732
rtibia 75.3743
rfoot -24.7624 -19.7561
rtoes -46.8559
lfemur -16.8758 -9.19322 -26.5493
ltibia 62.1275
lfoot 11.7508 -4.74193
ltoes 17.1324
335
root 0.615304 15.9845 -41.293 -151.887 0.967639 -185.402
lowerback 18.913 -1.76396 -1.21116
upperback 0.0245121 -2.54696 2.28581
thorax -10.4521 -1.148 3.91604
lowerneck -19.7457 -0.437134 -2.74918
upperneck -5.1555 1.30072 -2.84058
head 1.69061 1.12759 -0.332372
rclavicle 4.29375e-014 -4.53229e-014
rhumerus -56.1668 -3.87246 -84.9392
rradius 77.3642
rwrist -15.7222
rhand -29.4436 0.980965
rfingers 7.12502
rthumb -2.78008 -28.9807
lclavicle 4.29375e-014 -4.53229e-014
lhumerus -46.8653 -11.1792 95.0898
lradius 95.0648
lwrist 3.85791
lhand -23.2494 -4.25536
lfingers 7.12502
lthumb 3.20225 25.7003
rfemur -53.3005 -7.59327 24.9342
rtibia 74.2514
rfoot -25.1101 -20.1999
rtoes -47.2089
lfemur -19.5909 -8.00752 -25.7882
ltibia 66.5754
lfoot 10.8832 -1.48483
ltoes 17.0821
336
root 0.635491 16.008 -41.639 -151.894 1.15247 -184.912
lowerback 19.163 -1.57819 -0.963473
upperback 0.0890921 -2.25162 2.36268
thorax -10.5482 -1.02256 3.79081
lowerneck -19.6138 -0.482298 -2.70176
upperneck -5.37055 1.24228 -2.94775
head 1.59503 1.11006 -0.381002
rclavicle 3.57812e-014 -1.59028e-014
rhumerus -52.9128 -3.17336 -85.8784
rradius 77.3001
rwrist -15.4863
rhand -29.5633 1.07951
rfingers 7.12502
rthumb -2.8957 -28.8806
lclavicle 3.57812e-014 -1.59028e-014
lhumerus -46.9637 -9.79814 94.8994
lradius 89.9103
lwrist 3.39769
lhand -24.4212 -4.73273
lfingers 7.12502
lthumb 2.07053 25.237
rfemur -51.1549 -7.03136 25.0762
rtibia 73.1082
rfoot -25.3904 -20.4771
rtoes -47.5274
lfemur -22.4723 -6.72224 -25.0724
ltibia 70.9945
lfoot 10.1066 1.37759
ltoes 16.9873
337
root 0.657516 16.0286 -41.9851 -151.868 1.37833 -184.47
lowerback 19.3662 -1.64098 -0.895419
upperback 0.125208 -1.90569 2.42299
thorax -10.6428 -0.692483 3.70027
lowerneck -19.4895 -0.498636 -2.65061
upperneck -5.4819 1.21227 -3.07884
head 1.53688 1.09797 -0.435351
rclavicle -4.53229e-014 -1.51076e-014
rhumerus -49.8065 -2.09318 -86.8584
rradius 77.7433
rwrist -15.3135
rhand -29.5839 1.40305
rfingers 7.12502
rthumb -2.91563 -28.5568
lclavicle -4.53229e-014 -1.51076e-014
lhumerus -47.2712 -8.43074 94.5723
lradius 85.2544
lwrist 3.03092
lhand -25.6414 -5.21348
lfingers 7.12502
lthumb 0.892045 24.7644
rfemur -49.066 -6.53006 25.1937
rtibia 71.9303
rfoot -25.6245 -20.6263
rtoes -47.8189
lfemur -25.535 -5.37338 -24.4177
ltibia 75.3393
lfoot 9.41785 3.56961
ltoes 17.1515
338
root 0.680137 16.0451 -42.3325 -151.81 1.64486 -184.081
lowerback 19.4961 -1.45974 -0.812606
upperback 0.114785 -1.63963 2.45439
thorax -10.7472 -0.566568 3.6193
lowerneck -19.3565 -0.486717 -2.58241
upperneck -5.50823 1.20607 -3.21732
head 1.50676 1.08999 -0.492974
rclavicle 6.36111e-015 -3.18055e-014
rhumerus -46.9199 -0.687943 -87.8382
rradius 78.7794
rwrist -15.1531
rhand -29.4732 1.85466
rfingers 7.12502
rthumb -2.80869 -28.1066
lclavicle 6.36111e-015 -3.18055e-014
lhumerus -47.9393 -7.18786 94.1468
lradius 81.4414
lwrist 2.81425
lhand -26.7832 -5.75678
lfingers 7.12502
lthumb -0.210712 24.2229
rfemur -47.0123 -6.10837 25.2719
rtibia 70.6988
rfoot -25.8354 -20.6794
rtoes -48.1221
lfemur -28.7482 -3.98842 -23.8524
ltibia 79.554
lfoot 8.69927 4.94889
ltoes 17.2425
339
root 0.702779 16.0575 -42.6837 -151.718 1.93917 -183.711
lowerback 19.5388 -1.28322 -0.749621
upperback 0.0768942 -1.39268 2.45452
thorax -10.8318 -0.452199 3.51716
lowerneck -19.243 -0.446838 -2.50077
upperneck -5.45396 1.22705 -3.33099
head 1.50761 1.08956 -0.54263
rclavicle -2.82274e-014 5.725e-014
rhumerus -44.3004 0.961071 -88.7883
rradius 80.4482
rwrist -14.9447
rhand -29.2528 2.39797
rfingers 7.12502
rthumb -2.59582 -27.566
lclavicle -2.82274e-014 5.725e-014
lhumerus -49.0792 -6.19501 93.6733
lradius 78.7538
lwrist 2.76166
lhand -27.69 -6.3347
lfingers 7.12502
lthumb -1.08654 23.6423
rfemur -44.9616 -5.75349 25.3385
rtibia 69.3809
rfoot -26.0643 -20.6313
rtoes -48.4001
lfemur -32.096 -2.58335 -23.3495
ltibia 83.5939
lfoot 7.83342 5.46741
ltoes 17.1108
